<?xml version="1.0" encoding="utf-8"?>
<!-- Generator: Adobe Illustrator 24.1.2, SVG Export Plug-In . SVG Version: 6.00 Build 0)  -->
<svg version="1.1" id="Layer_1" xmlns="http://www.w3.org/2000/svg" xmlns:xlink="http://www.w3.org/1999/xlink" x="0px" y="0px"
	 viewBox="0 0 216.8 71.6" style="enable-background:new 0 0 216.8 71.6;" xml:space="preserve">
<style type="text/css">
	.st0{fill:#FFFFFF;}
	.st1{fill:#D0B97C;}
	.st2{fill:#010101;}
</style>
<g id="wordmark">
	<g>
		<path class="st0" d="M103.1,17.8c10.7,0,16.1,8.4,16.1,17.9s-5.4,17.9-16.1,17.9s-16.2-8.4-16.2-17.9S92.3,17.8,103.1,17.8z
			 M103.1,50.7c9.1,0,12.8-7.6,12.8-15.1s-3.9-15.1-12.8-15.1c-9.1,0-12.8,7.6-12.8,15.1C90.1,43.1,94,50.7,103.1,50.7z"/>
		<path class="st0" d="M123.6,28h3.1v4.2h0.2c1.1-2.9,4.4-5,8-5c7,0,9.1,3.6,9.1,9.6v15.9h-3.2V37.3c0-4.2-1.5-7.5-6.3-7.5
			s-7.6,3.6-7.8,8.4v14.4h-3.1V28H123.6z"/>
		<path class="st0" d="M149.6,18.4h3.1v34.2h-3.1V18.4z"/>
		<path class="st0" d="M158.3,18.4h3.1v4.9h-3.1V18.4z M158.3,28h3.1v24.7h-3.1V28z"/>
		<path class="st0" d="M167.1,28h3.1v4.2h0.2c1.1-2.9,4.4-5,8-5c7,0,9.1,3.6,9.1,9.6v15.9h-3.1V37.3c0-4.2-1.5-7.5-6.3-7.5
			c-4.9,0-7.6,3.6-7.8,8.4v14.4h-3.1L167.1,28L167.1,28z"/>
		<path class="st0" d="M194.7,41.2c0,4.4,2.3,9.7,8.1,9.7c4.4,0,6.8-2.6,7.8-6.3h3.1c-1.3,5.7-4.5,8.9-10.7,8.9
			c-7.8,0-11.2-6-11.2-13.1c0-6.5,3.2-13.1,11.2-13.1c8,0,11.2,7,10.9,14C213.8,41.2,194.7,41.2,194.7,41.2z M210.7,38.6
			c-0.2-4.5-2.9-8.8-7.8-8.8c-4.9,0-7.6,4.4-8.1,8.8H210.7z"/>
	</g>
	<polygon class="st1" points="9.8,0 0,9.8 0,43.7 9.8,53.5 20.6,53.5 20.6,61.8 30.5,71.6 59.2,71.6 69.1,61.8 69.1,35.5 74.2,35.5 
		74.2,18 53.6,18 53.6,9.8 43.8,0 	"/>
	<polygon class="st2" points="43.4,1 52.6,10.2 52.6,19.1 73.1,19.1 73.1,34.5 68.1,34.5 68.1,61.3 58.8,70.6 30.9,70.6 21.6,61.3 
		21.6,52.5 10.2,52.5 1,43.3 1,10.2 10.2,1 	"/>
	<polygon class="st0" points="11.3,50 24.2,50 24.2,60.3 32,68 57.7,68 65.5,60.3 65.5,32 70.6,32 70.6,21.6 55.1,21.6 55.1,57.7 
		34.5,57.7 34.5,50 42.3,50 50,42.2 50,32 39.7,32 39.7,39.6 34.5,39.6 34.5,21.6 19,21.6 19,32 24.2,32 24.2,39.6 13.9,39.6 
		13.9,13.8 39.7,13.8 39.7,21.6 50,21.6 50,11.3 42.3,3.6 11.3,3.6 3.6,11.3 3.6,42.2 	"/>
	<polygon class="st1" points="33.2,48.7 41.8,48.7 48.7,41.7 48.7,33.2 40.9,33.2 40.9,40.9 33.2,40.9 33.2,22.9 20.3,22.9 
		20.3,30.7 25.5,30.7 25.5,40.9 12.6,40.9 12.6,12.5 40.9,12.5 40.9,20.3 48.7,20.3 48.7,11.8 41.8,4.8 11.8,4.8 4.8,11.8 4.8,41.7 
		11.8,48.7 25.5,48.7 25.5,59.8 32.5,66.8 57.2,66.8 64.3,59.8 64.3,30.7 69.3,30.7 69.3,22.9 56.3,22.9 56.3,59 33.2,59 	"/>
</g>
</svg>
