<?xml version="1.0" encoding="utf-8"?>
<!-- Generator: Adobe Illustrator 24.1.2, SVG Export Plug-In . SVG Version: 6.00 Build 0)  -->
<svg version="1.1" xmlns="http://www.w3.org/2000/svg" xmlns:xlink="http://www.w3.org/1999/xlink" x="0px" y="0px"
	 viewBox="0 0 378.7 79.3" style="enable-background:new 0 0 378.7 79.3;" xml:space="preserve">
<style type="text/css">
	.Arched_x0020_Green{fill:url(#SVGID_1_);stroke:#FFFFFF;stroke-width:0.25;stroke-miterlimit:1;}
	.st0{display:none;}
	.st1{display:inline;}
	.st2{display:inline;fill:#FFFFFF;}
	.st3{display:inline;fill:#E0C398;}
	.st4{fill:#FFFFFF;}
	.st5{fill:#CFB87C;}
</style>
<linearGradient id="SVGID_1_" gradientUnits="userSpaceOnUse" x1="-88.04" y1="344.4688" x2="-87.3329" y2="343.7617">
	<stop  offset="0" style="stop-color:#20AC4B"/>
	<stop  offset="0.9831" style="stop-color:#19361A"/>
</linearGradient>
<g id="Black_x5F_ko" class="st0">
	<g class="st1">
		<path d="M53.9,18.2V9.9L44,0H9.9L0,9.9v34.1l9.9,9.9h10.9v8.4l9.9,9.9h28.8l10-9.9V35.7h5.1V18.2 M31.5,70l-8.7-8.7v-9.5H10.7
			L2,43.1V10.7l8.7-8.6h32.4l8.6,8.7v9.5h20.7v13.4h-5.1v27.7L58.6,70H31.5z"/>
		<polyline points="70.6,22.2 55.9,22.2 55.9,58.5 34.2,58.5 34.2,49.8 42.4,49.8 49.8,42.3 49.8,32.6 40.4,32.6 40.4,40.3 
			34.2,40.3 34.2,22.2 19.6,22.2 19.6,31.7 24.8,31.7 24.8,40.3 13.5,40.3 13.5,13.4 40.4,13.4 40.4,21.2 49.8,21.2 49.8,11.5 
			42.4,4 11.5,4 4,11.5 4,42.3 11.5,49.8 24.8,49.8 24.8,60.5 32.4,68 57.9,68 65.5,60.5 65.5,31.7 70.6,31.7 		"/>
	</g>
</g>
<g id="Black" class="st0">
	<polygon class="st2" points="53.7,18.1 53.7,9.8 43.9,0 9.9,0 0,9.8 0,43.8 9.9,53.7 20.7,53.7 20.7,61.9 30.6,71.8 59.3,71.8 
		69.3,61.9 69.3,35.6 74.4,35.6 74.4,18.1 	"/>
	<g class="st1">
		<path d="M53.9,18.2V9.9L44,0H9.9L0,9.9v34.1l9.9,9.9h10.9v8.4l9.9,9.9h28.8l10-9.9V35.7h5.1V18.2 M31.5,70l-8.7-8.7v-9.5H10.7
			L2,43.1V10.7l8.7-8.6h32.4l8.6,8.7v9.5h20.7v13.4h-5.1v27.7L58.6,70H31.5z"/>
		<polyline points="70.6,22.2 55.9,22.2 55.9,58.5 34.2,58.5 34.2,49.8 42.4,49.8 49.8,42.3 49.8,32.6 40.4,32.6 40.4,40.3 
			34.2,40.3 34.2,22.2 19.6,22.2 19.6,31.7 24.8,31.7 24.8,40.3 13.5,40.3 13.5,13.4 40.4,13.4 40.4,21.2 49.8,21.2 49.8,11.5 
			42.4,4 11.5,4 4,11.5 4,42.3 11.5,49.8 24.8,49.8 24.8,60.5 32.4,68 57.9,68 65.5,60.5 65.5,31.7 70.6,31.7 		"/>
	</g>
</g>
<g id="PMS" class="st0">
	<polygon class="st3" points="53.9,18.1 53.9,9.9 44,0 9.9,0 0,9.9 0,44 9.9,53.8 20.7,53.8 20.7,62.1 30.7,72 59.5,72 69.5,62.1 
		69.5,35.7 74.6,35.7 74.6,18.1 	"/>
	<polygon class="st1" points="43.6,1 52.9,10.3 52.9,19.2 73.6,19.2 73.6,34.7 68.5,34.7 68.5,61.7 59.1,71 31.1,71 21.8,61.7 
		21.8,52.8 10.3,52.8 1,43.5 1,10.3 10.3,1 	"/>
	<polyline class="st2" points="11.4,50.2 24.3,50.2 24.3,60.6 32.2,68.4 58,68.4 65.9,60.6 65.9,32.1 71,32.1 71,21.7 55.4,21.7 
		55.4,58 34.7,58 34.7,50.2 42.5,50.2 50.3,42.5 50.3,32.1 39.9,32.1 39.9,39.9 34.7,39.9 34.7,21.7 19.2,21.7 19.2,32.1 24.3,32.1 
		24.3,39.9 14,39.9 14,13.9 39.9,13.9 39.9,21.7 50.3,21.7 50.3,11.4 42.5,3.6 11.4,3.6 3.6,11.4 3.6,42.5 11.4,50.2 	"/>
	<polygon class="st3" points="33.4,49 42,49 49,41.9 49,33.4 41.2,33.4 41.2,41.1 33.4,41.1 33.4,23 20.4,23 20.4,30.9 25.6,30.9 
		25.6,41.1 12.7,41.1 12.7,12.6 41.2,12.6 41.2,20.5 49,20.5 49,11.9 42,4.9 11.9,4.9 4.9,11.9 4.9,41.9 11.9,49 25.6,49 25.6,60.1 
		32.7,67.1 57.5,67.1 64.6,60.1 64.6,30.9 69.7,30.9 69.7,23 56.7,23 56.7,59.3 33.4,59.3 	"/>
</g>
<g id="_x34_c">
</g>
<g id="wordmark">
	<g>
		<path class="st4" d="M101.9,17.8c6.6,0,9.9,5.2,9.9,11c0,5.8-3.3,11-9.9,11c-6.6,0-10-5.2-10-11C91.9,23,95.2,17.8,101.9,17.8z
			 M101.9,38.1c5.6,0,7.9-4.7,7.9-9.3c0-4.6-2.4-9.3-7.9-9.3c-5.6,0-7.9,4.7-7.9,9.3C93.9,33.4,96.3,38.1,101.9,38.1z"/>
		<path class="st4" d="M114.5,24.1h1.9v2.6h0.1c0.7-1.8,2.7-3.1,4.9-3.1c4.3,0,5.6,2.2,5.6,5.9v9.8H125v-9.5c0-2.6-0.9-4.6-3.9-4.6
			c-3,0-4.7,2.2-4.8,5.2v8.9h-1.9V24.1z"/>
		<path class="st4" d="M130.5,18.2h1.9v21.1h-1.9V18.2z"/>
		<path class="st4" d="M135.9,18.2h1.9v3h-1.9V18.2z M135.9,24.1h1.9v15.2h-1.9V24.1z"/>
		<path class="st4" d="M141.3,24.1h1.9v2.6h0.1c0.7-1.8,2.7-3.1,4.9-3.1c4.3,0,5.6,2.2,5.6,5.9v9.8h-1.9v-9.5c0-2.6-0.9-4.6-3.9-4.6
			c-3,0-4.7,2.2-4.8,5.2v8.9h-1.9V24.1z"/>
		<path class="st4" d="M158.3,32.2c0,2.7,1.4,6,5,6c2.7,0,4.2-1.6,4.8-3.9h1.9c-0.8,3.5-2.8,5.5-6.6,5.5c-4.8,0-6.9-3.7-6.9-8.1
			c0-4,2-8.1,6.9-8.1c4.9,0,6.9,4.3,6.7,8.6H158.3z M168.2,30.6c-0.1-2.8-1.8-5.4-4.8-5.4c-3,0-4.7,2.7-5,5.4H168.2z"/>
	</g>
	<g>
		<path class="st4" d="M101.1,56.6c0,2.5-1.5,3.7-4,3.7c-2.5,0-4-1.2-4-3.7v-5.8h2v5.8c0,1,0.3,2,1.9,2c1.5,0,1.9-0.6,1.9-2v-5.8h2
			V56.6z"/>
		<path class="st4" d="M103.5,50.8h2l3.9,6.2h0v-6.2h1.9v9.3h-2l-3.9-6.2h0v6.2h-1.9V50.8z"/>
		<path class="st4" d="M113.9,50.8h2v9.3h-2V50.8z"/>
		<path class="st4" d="M122.7,60.1h-2.3l-3-9.3h2.1l2.1,6.5h0l2.1-6.5h2.1L122.7,60.1z"/>
		<path class="st4" d="M127.3,50.8h6.9v1.7h-4.9v2h4.5v1.6h-4.5v2.3h5v1.7h-7V50.8z"/>
		<path class="st4" d="M136.5,50.8h5c1.7,0,2.7,1.2,2.7,2.6c0,1.1-0.4,1.9-1.5,2.3v0c1,0.3,1.3,1.2,1.4,2.2c0,0.6,0,1.7,0.4,2.2h-2
			c-0.2-0.6-0.2-1.5-0.3-2.2c-0.1-1-0.5-1.4-1.5-1.4h-2v3.6h-2V50.8z M138.6,55h2.2c0.9,0,1.4-0.4,1.4-1.3c0-0.9-0.5-1.3-1.4-1.3
			h-2.2V55z"/>
		<path class="st4" d="M148,57c0,1.2,1,1.7,2.1,1.7c0.7,0,1.8-0.2,1.8-1.2c0-1-1.4-1.2-2.8-1.5c-1.4-0.4-2.8-0.9-2.8-2.6
			c0-1.9,1.8-2.8,3.5-2.8c1.9,0,3.7,0.8,3.7,3h-2c-0.1-1.1-0.9-1.4-1.8-1.4c-0.6,0-1.4,0.3-1.4,1.1c0,0.7,0.4,0.8,2.8,1.4
			c0.7,0.2,2.8,0.6,2.8,2.7c0,1.7-1.3,3-3.9,3c-2.1,0-4-1-4-3.3H148z"/>
		<path class="st4" d="M155.8,50.8h2v9.3h-2V50.8z"/>
		<path class="st4" d="M162.3,52.5h-2.8v-1.7h7.6v1.7h-2.8v7.6h-2V52.5z"/>
		<path class="st4" d="M171.7,56.5l-3.4-5.7h2.3l2.2,3.7l2.2-3.7h2.3l-3.4,5.7v3.6h-2V56.5z"/>
		<path class="st4" d="M187,50.6c2.9,0,4.6,2.1,4.6,4.9c0,2.7-1.7,4.8-4.6,4.8c-2.9,0-4.6-2.1-4.6-4.8
			C182.5,52.7,184.2,50.6,187,50.6z M187,58.6c1.8,0,2.5-1.6,2.5-3.1c0-1.6-0.7-3.2-2.5-3.2c-1.8,0-2.5,1.6-2.5,3.2
			C184.5,57,185.2,58.6,187,58.6z"/>
		<path class="st4" d="M193.7,50.8h6.5v1.7h-4.5v2.1h3.9v1.6h-3.9v3.8h-2V50.8z"/>
		<path class="st4" d="M212.5,53.9c-0.1-0.9-1-1.6-2-1.6c-1.8,0-2.5,1.6-2.5,3.2c0,1.5,0.7,3.1,2.5,3.1c1.2,0,1.9-0.9,2.1-2.1h2
			c-0.2,2.3-1.8,3.8-4.1,3.8c-2.9,0-4.6-2.1-4.6-4.8c0-2.8,1.7-4.9,4.6-4.9c2,0,3.8,1.2,4,3.3H212.5z"/>
		<path class="st4" d="M220.7,50.6c2.9,0,4.6,2.1,4.6,4.9c0,2.7-1.7,4.8-4.6,4.8s-4.6-2.1-4.6-4.8C216.1,52.7,217.8,50.6,220.7,50.6
			z M220.7,58.6c1.8,0,2.5-1.6,2.5-3.1c0-1.6-0.7-3.2-2.5-3.2c-1.8,0-2.5,1.6-2.5,3.2C218.2,57,218.9,58.6,220.7,58.6z"/>
		<path class="st4" d="M227.3,50.8h2v7.6h4.5v1.7h-6.6V50.8z"/>
		<path class="st4" d="M239.6,50.6c2.9,0,4.6,2.1,4.6,4.9c0,2.7-1.7,4.8-4.6,4.8c-2.9,0-4.6-2.1-4.6-4.8
			C235.1,52.7,236.8,50.6,239.6,50.6z M239.6,58.6c1.8,0,2.5-1.6,2.5-3.1c0-1.6-0.7-3.2-2.5-3.2c-1.8,0-2.5,1.6-2.5,3.2
			C237.1,57,237.8,58.6,239.6,58.6z"/>
		<path class="st4" d="M246.3,50.8h5c1.7,0,2.7,1.2,2.7,2.6c0,1.1-0.4,1.9-1.5,2.3v0c1,0.3,1.3,1.2,1.4,2.2c0,0.6,0,1.7,0.4,2.2h-2
			c-0.2-0.6-0.2-1.5-0.3-2.2c-0.1-1-0.5-1.4-1.5-1.4h-2v3.6h-2V50.8z M248.3,55h2.2c0.9,0,1.4-0.4,1.4-1.3c0-0.9-0.5-1.3-1.4-1.3
			h-2.2V55z"/>
		<path class="st4" d="M259.1,50.8h2.1l3.5,9.3h-2.1l-0.7-2.1h-3.5l-0.7,2.1h-2.1L259.1,50.8z M259,56.5h2.4l-1.2-3.4h0L259,56.5z"
			/>
		<path class="st4" d="M266.2,50.8h4c2.4,0,4.2,1.5,4.2,4.6c0,2.7-1.4,4.7-4.2,4.7h-4V50.8z M268.3,58.4h1.8c1.2,0,2.3-0.7,2.3-2.8
			c0-1.9-0.7-3.1-2.7-3.1h-1.5V58.4z"/>
		<path class="st4" d="M280.7,50.6c2.9,0,4.6,2.1,4.6,4.9c0,2.7-1.7,4.8-4.6,4.8c-2.9,0-4.6-2.1-4.6-4.8
			C276.1,52.7,277.8,50.6,280.7,50.6z M280.7,58.6c1.8,0,2.5-1.6,2.5-3.1c0-1.6-0.7-3.2-2.5-3.2s-2.5,1.6-2.5,3.2
			C278.2,57,278.9,58.6,280.7,58.6z"/>
		<path class="st4" d="M93,68.7h3.3c1.2,0,2,0.6,2,1.7c0,0.7-0.4,1.2-1,1.4v0c0.8,0.2,1.3,0.8,1.3,1.7c0,1.1-0.7,1.9-2.5,1.9H93
			V68.7z M94.2,71.6h1.9c0.6,0,1-0.3,1-0.9c0-0.7-0.4-0.9-1-0.9h-1.9V71.6z M94.2,74.5h2.1c0.7,0,1.1-0.4,1.1-1.1c0-0.7-0.4-1-1.1-1
			h-2.1V74.5z"/>
		<path class="st4" d="M99.4,73c0-1.5,0.9-2.6,2.5-2.6c1.6,0,2.5,1.1,2.5,2.6c0,1.5-0.9,2.6-2.5,2.6C100.3,75.6,99.4,74.6,99.4,73z
			 M103.3,73c0-0.8-0.4-1.7-1.4-1.7c-1,0-1.4,0.9-1.4,1.7c0,0.9,0.4,1.7,1.4,1.7C102.9,74.8,103.3,73.9,103.3,73z"/>
		<path class="st4" d="M109.7,75.5h-1.1v-0.7h0c-0.3,0.5-0.9,0.8-1.4,0.8c-1.3,0-1.8-0.6-1.8-1.9v-3.1h1.1v3c0,0.9,0.4,1.2,0.9,1.2
			c0.9,0,1.2-0.6,1.2-1.3v-2.9h1.1V75.5z"/>
		<path class="st4" d="M110.9,68.7h1.1v6.8h-1.1V68.7z"/>
		<path class="st4" d="M117.9,75.5h-1v-0.7h0c-0.3,0.6-0.9,0.8-1.5,0.8c-1.5,0-2.3-1.2-2.3-2.6c0-1.8,1.1-2.6,2.1-2.6
			c0.6,0,1.3,0.2,1.6,0.8h0v-2.5h1.1V75.5z M115.5,74.8c1,0,1.4-0.9,1.4-1.7c0-1.1-0.5-1.7-1.4-1.7c-1,0-1.4,0.9-1.4,1.8
			C114.1,73.9,114.5,74.8,115.5,74.8z"/>
		<path class="st4" d="M120,73.3c0,0.8,0.4,1.5,1.3,1.5c0.6,0,1-0.3,1.2-0.8h1c-0.2,1.1-1.2,1.7-2.2,1.7c-1.5,0-2.4-1.1-2.4-2.6
			c0-1.4,0.9-2.6,2.4-2.6c1.5,0,2.5,1.4,2.3,2.9H120z M122.5,72.6c0-0.7-0.5-1.3-1.2-1.3c-0.8,0-1.3,0.6-1.3,1.3H122.5z"/>
		<path class="st4" d="M124.5,70.6h1v1h0c0.1-0.5,0.8-1.1,1.4-1.1c0.2,0,0.3,0,0.4,0v1c-0.2,0-0.3,0-0.5,0c-0.7,0-1.3,0.6-1.3,1.7
			v2.3h-1.1V70.6z"/>
		<path class="st4" d="M130.5,68h1v9.5h-1V68z"/>
		<path class="st4" d="M140,70.9c-0.2-0.8-0.7-1.3-1.7-1.3c-1.5,0-2.1,1.3-2.1,2.6c0,1.3,0.6,2.6,2.1,2.6c1.1,0,1.6-0.8,1.7-1.8h1.2
			c-0.1,1.6-1.2,2.7-2.9,2.7c-2,0-3.3-1.6-3.3-3.6c0-1.9,1.2-3.6,3.3-3.6c1.5,0,2.7,0.9,2.9,2.3H140z"/>
		<path class="st4" d="M142,73c0-1.5,0.9-2.6,2.5-2.6c1.6,0,2.5,1.1,2.5,2.6c0,1.5-0.9,2.6-2.5,2.6C142.9,75.6,142,74.6,142,73z
			 M145.9,73c0-0.8-0.4-1.7-1.4-1.7s-1.4,0.9-1.4,1.7c0,0.9,0.4,1.7,1.4,1.7S145.9,73.9,145.9,73z"/>
		<path class="st4" d="M148,68.7h1.1v6.8H148V68.7z"/>
		<path class="st4" d="M150.1,73c0-1.5,0.9-2.6,2.5-2.6c1.6,0,2.5,1.1,2.5,2.6c0,1.5-0.9,2.6-2.5,2.6C151,75.6,150.1,74.6,150.1,73z
			 M153.9,73c0-0.8-0.4-1.7-1.4-1.7c-1,0-1.4,0.9-1.4,1.7c0,0.9,0.4,1.7,1.4,1.7C153.5,74.8,153.9,73.9,153.9,73z"/>
		<path class="st4" d="M156,70.6h1v1h0c0.1-0.5,0.8-1.1,1.4-1.1c0.2,0,0.3,0,0.4,0v1c-0.2,0-0.3,0-0.5,0c-0.7,0-1.3,0.6-1.3,1.7v2.3
			H156V70.6z"/>
		<path class="st4" d="M163.7,74.4c0,0.3,0.1,0.4,0.3,0.4c0.1,0,0.2,0,0.3,0v0.8c-0.2,0.1-0.5,0.1-0.7,0.1c-0.4,0-0.8-0.2-0.8-0.6
			c-0.4,0.4-1.1,0.6-1.7,0.6c-0.9,0-1.7-0.5-1.7-1.4c0-1.2,1-1.4,1.9-1.5c0.8-0.1,1.5-0.1,1.5-0.7c0-0.6-0.6-0.7-1-0.7
			c-0.6,0-1,0.2-1.1,0.8h-1.1c0.1-1.3,1.1-1.6,2.2-1.6c1,0,2,0.4,2,1.4V74.4z M162.6,73c-0.3,0.2-0.9,0.2-1.3,0.3
			c-0.5,0.1-0.9,0.2-0.9,0.8c0,0.5,0.6,0.6,1,0.6c0.5,0,1.2-0.2,1.2-0.9V73z"/>
		<path class="st4" d="M169.6,75.5h-1v-0.7h0c-0.3,0.6-0.9,0.8-1.5,0.8c-1.5,0-2.3-1.2-2.3-2.6c0-1.8,1.1-2.6,2.1-2.6
			c0.6,0,1.3,0.2,1.6,0.8h0v-2.5h1.1V75.5z M167.1,74.8c1,0,1.4-0.9,1.4-1.7c0-1.1-0.5-1.7-1.4-1.7c-1,0-1.4,0.9-1.4,1.8
			C165.8,73.9,166.2,74.8,167.1,74.8z"/>
		<path class="st4" d="M170.6,73c0-1.5,0.9-2.6,2.5-2.6c1.6,0,2.5,1.1,2.5,2.6c0,1.5-0.9,2.6-2.5,2.6
			C171.5,75.6,170.6,74.6,170.6,73z M174.4,73c0-0.8-0.4-1.7-1.4-1.7c-1,0-1.4,0.9-1.4,1.7c0,0.9,0.4,1.7,1.4,1.7
			C174,74.8,174.4,73.9,174.4,73z"/>
		<path class="st4" d="M180,73.2c0,1,0.8,1.5,1.7,1.5c1,0,1.4-0.5,1.4-1c0-0.5-0.3-0.7-0.6-0.8c-0.5-0.2-1.1-0.3-2-0.6
			c-1.2-0.3-1.5-1-1.5-1.7c0-1.4,1.3-2,2.5-2c1.4,0,2.6,0.8,2.6,2.2H183c-0.1-0.9-0.6-1.2-1.5-1.2c-0.6,0-1.2,0.2-1.2,0.9
			c0,0.5,0.3,0.7,0.8,0.9c0.1,0,1.6,0.4,2,0.5c0.9,0.3,1.3,1,1.3,1.7c0,1.5-1.4,2.1-2.7,2.1c-1.5,0-2.8-0.7-2.8-2.4H180z"/>
		<path class="st4" d="M185.4,70.6h1v0.7h0c0.3-0.6,0.9-0.8,1.5-0.8c1.5,0,2.3,1.2,2.3,2.6c0,1.3-0.7,2.6-2.1,2.6
			c-0.6,0-1.3-0.2-1.6-0.8h0v2.5h-1.1V70.6z M187.8,71.3c-0.9,0-1.4,0.7-1.4,1.7c0,1,0.5,1.7,1.4,1.7c1,0,1.4-0.9,1.4-1.7
			C189.2,72.2,188.7,71.3,187.8,71.3z"/>
		<path class="st4" d="M191.3,70.6h1v1h0c0.1-0.5,0.8-1.1,1.4-1.1c0.2,0,0.3,0,0.4,0v1c-0.2,0-0.3,0-0.5,0c-0.7,0-1.3,0.6-1.3,1.7
			v2.3h-1.1V70.6z"/>
		<path class="st4" d="M194.8,68.7h1.1v1h-1.1V68.7z M194.8,70.6h1.1v4.9h-1.1V70.6z"/>
		<path class="st4" d="M197.1,70.6h1v0.7l0,0c0.3-0.5,0.9-0.9,1.5-0.9c1.1,0,1.7,0.6,1.7,1.7v3.4h-1.1v-3.1c0-0.8-0.3-1.1-1-1.1
			c-0.7,0-1.2,0.6-1.2,1.3v2.9h-1.1V70.6z"/>
		<path class="st4" d="M207.2,75.2c0,1.5-0.9,2.2-2.4,2.2c-1,0-2.1-0.4-2.2-1.5h1.1c0.1,0.6,0.6,0.7,1.2,0.7c0.9,0,1.3-0.4,1.3-1.3
			v-0.8h0c-0.3,0.5-0.9,0.9-1.5,0.9c-1.6,0-2.2-1.2-2.2-2.6c0-1.3,0.8-2.5,2.2-2.5c0.6,0,1.2,0.3,1.5,0.8h0v-0.7h1.1V75.2z
			 M206.1,72.9c0-0.8-0.4-1.6-1.3-1.6c-1,0-1.3,0.9-1.3,1.7c0,0.8,0.4,1.6,1.3,1.6C205.8,74.6,206.1,73.8,206.1,72.9z"/>
		<path class="st4" d="M209.3,73.9c0.1,0.6,0.5,0.9,1.1,0.9c0.4,0,1.1-0.1,1.1-0.6c0-0.6-0.8-0.6-1.6-0.8c-0.8-0.2-1.6-0.5-1.6-1.5
			c0-1.1,1.2-1.4,2.1-1.4c1,0,1.9,0.4,2.1,1.5h-1.1c-0.1-0.5-0.5-0.7-1-0.7c-0.3,0-0.9,0.1-0.9,0.5c0,0.5,0.8,0.6,1.6,0.8
			c0.8,0.2,1.6,0.5,1.6,1.4c0,1.2-1.2,1.6-2.2,1.6c-1.2,0-2.2-0.6-2.2-1.7H209.3z"/>
		<path class="st4" d="M216,68h1v9.5h-1V68z"/>
		<path class="st4" d="M220.9,68.7h2.8c2.1,0,3,1.5,3,3.4c0,1.9-0.9,3.4-3,3.4h-2.8V68.7z M222.1,74.5h1.2c1.9,0,2.3-1.1,2.3-2.4
			s-0.4-2.4-2.3-2.4h-1.2V74.5z"/>
		<path class="st4" d="M228.6,73.3c0,0.8,0.4,1.5,1.3,1.5c0.6,0,1-0.3,1.2-0.8h1c-0.2,1.1-1.2,1.7-2.2,1.7c-1.5,0-2.4-1.1-2.4-2.6
			c0-1.4,0.9-2.6,2.4-2.6c1.5,0,2.5,1.4,2.3,2.9H228.6z M231.1,72.6c0-0.7-0.5-1.3-1.2-1.3c-0.8,0-1.3,0.6-1.3,1.3H231.1z"/>
		<path class="st4" d="M233.1,70.6h1v0.7l0,0c0.3-0.5,0.9-0.9,1.5-0.9c1.1,0,1.7,0.6,1.7,1.7v3.4h-1.1v-3.1c0-0.8-0.3-1.1-1-1.1
			c-0.7,0-1.2,0.6-1.2,1.3v2.9h-1.1V70.6z"/>
		<path class="st4" d="M238,70.6h1.2l1.2,3.8h0l1.2-3.8h1.1l-1.8,4.9h-1.2L238,70.6z"/>
		<path class="st4" d="M244.2,73.3c0,0.8,0.4,1.5,1.3,1.5c0.6,0,1-0.3,1.2-0.8h1c-0.2,1.1-1.2,1.7-2.2,1.7c-1.5,0-2.4-1.1-2.4-2.6
			c0-1.4,0.9-2.6,2.4-2.6c1.5,0,2.5,1.4,2.3,2.9H244.2z M246.8,72.6c0-0.7-0.5-1.3-1.2-1.3c-0.8,0-1.3,0.6-1.3,1.3H246.8z"/>
		<path class="st4" d="M248.8,70.6h1v1h0c0.1-0.5,0.8-1.1,1.4-1.1c0.2,0,0.3,0,0.4,0v1c-0.2,0-0.3,0-0.5,0c-0.7,0-1.3,0.6-1.3,1.7
			v2.3h-1.1V70.6z"/>
		<path class="st4" d="M254.8,68h1v9.5h-1V68z"/>
		<path class="st4" d="M261.5,68.7h1.3l2.6,6.8h-1.3l-0.6-1.8h-2.7l-0.6,1.8h-1.2L261.5,68.7z M261.1,72.8h2.1l-1-2.9h0L261.1,72.8z
			"/>
		<path class="st4" d="M266,70.6h1v0.7l0,0c0.3-0.5,0.9-0.9,1.5-0.9c1.1,0,1.7,0.6,1.7,1.7v3.4h-1.1v-3.1c0-0.8-0.3-1.1-1-1.1
			c-0.7,0-1.2,0.6-1.2,1.3v2.9H266V70.6z"/>
		<path class="st4" d="M272.4,73.9c0.1,0.6,0.5,0.9,1.1,0.9c0.4,0,1.1-0.1,1.1-0.6c0-0.6-0.8-0.6-1.6-0.8c-0.8-0.2-1.6-0.5-1.6-1.5
			c0-1.1,1.2-1.4,2.1-1.4c1,0,1.9,0.4,2.1,1.5h-1.1c-0.1-0.5-0.5-0.7-1-0.7c-0.3,0-0.9,0.1-0.9,0.5c0,0.5,0.8,0.6,1.6,0.8
			c0.8,0.2,1.6,0.5,1.6,1.4c0,1.2-1.2,1.6-2.2,1.6c-1.2,0-2.2-0.6-2.2-1.7H272.4z"/>
		<path class="st4" d="M279.9,72.2c-0.1-0.6-0.5-0.9-1.1-0.9c-0.6,0-1.4,0.3-1.4,1.8c0,0.8,0.4,1.7,1.3,1.7c0.6,0,1.1-0.4,1.2-1.1
			h1.1c-0.2,1.3-1,2-2.3,2c-1.5,0-2.4-1.1-2.4-2.5c0-1.5,0.8-2.6,2.4-2.6c1.1,0,2.1,0.6,2.2,1.8H279.9z"/>
		<path class="st4" d="M282,68.7h1.1v2.5h0c0.3-0.4,0.8-0.8,1.5-0.8c1.1,0,1.7,0.6,1.7,1.7v3.4h-1.1v-3.1c0-0.8-0.3-1.1-1-1.1
			c-0.7,0-1.2,0.6-1.2,1.3v2.9H282V68.7z"/>
		<path class="st4" d="M291.8,75.5h-1.1v-0.7h0c-0.3,0.5-0.9,0.8-1.4,0.8c-1.3,0-1.8-0.6-1.8-1.9v-3.1h1.1v3c0,0.9,0.4,1.2,0.9,1.2
			c0.9,0,1.2-0.6,1.2-1.3v-2.9h1.1V75.5z"/>
		<path class="st4" d="M292.6,70.6h0.8v-1.5h1.1v1.5h1v0.8h-1V74c0,0.4,0,0.7,0.5,0.7c0.2,0,0.3,0,0.5,0v0.8c-0.2,0-0.5,0.1-0.7,0.1
			c-1.1,0-1.3-0.4-1.4-1.3v-2.9h-0.8V70.6z"/>
		<path class="st4" d="M296.3,70.6h4v0.8l-2.8,3.3h3v0.9h-4.3v-0.8l2.7-3.3h-2.5V70.6z"/>
		<path class="st4" d="M304,68.7h1.7l1.9,5.3h0l1.8-5.3h1.7v6.8h-1.1v-5.2h0l-1.9,5.2h-1l-1.9-5.2h0v5.2H304V68.7z"/>
		<path class="st4" d="M313.2,73.3c0,0.8,0.4,1.5,1.3,1.5c0.6,0,1-0.3,1.2-0.8h1c-0.2,1.1-1.2,1.7-2.2,1.7c-1.5,0-2.4-1.1-2.4-2.6
			c0-1.4,0.9-2.6,2.4-2.6c1.5,0,2.5,1.4,2.3,2.9H313.2z M315.8,72.6c0-0.7-0.5-1.3-1.2-1.3c-0.8,0-1.3,0.6-1.3,1.3H315.8z"/>
		<path class="st4" d="M322.4,75.5h-1v-0.7h0c-0.3,0.6-0.9,0.8-1.5,0.8c-1.5,0-2.3-1.2-2.3-2.6c0-1.8,1.1-2.6,2.1-2.6
			c0.6,0,1.3,0.2,1.6,0.8h0v-2.5h1.1V75.5z M320,74.8c1,0,1.4-0.9,1.4-1.7c0-1.1-0.5-1.7-1.4-1.7c-1,0-1.4,0.9-1.4,1.8
			C318.7,73.9,319.1,74.8,320,74.8z"/>
		<path class="st4" d="M323.7,68.7h1.1v1h-1.1V68.7z M323.7,70.6h1.1v4.9h-1.1V70.6z"/>
		<path class="st4" d="M329.4,72.2c-0.1-0.6-0.5-0.9-1.1-0.9c-0.6,0-1.4,0.3-1.4,1.8c0,0.8,0.4,1.7,1.3,1.7c0.6,0,1.1-0.4,1.2-1.1
			h1.1c-0.2,1.3-1,2-2.3,2c-1.5,0-2.4-1.1-2.4-2.5c0-1.5,0.8-2.6,2.4-2.6c1.1,0,2.1,0.6,2.2,1.8H329.4z"/>
		<path class="st4" d="M335.5,74.4c0,0.3,0.1,0.4,0.3,0.4c0.1,0,0.2,0,0.3,0v0.8c-0.2,0.1-0.5,0.1-0.7,0.1c-0.4,0-0.8-0.2-0.8-0.6
			c-0.4,0.4-1.1,0.6-1.7,0.6c-0.9,0-1.7-0.5-1.7-1.4c0-1.2,1-1.4,1.9-1.5c0.8-0.1,1.5-0.1,1.5-0.7c0-0.6-0.6-0.7-1-0.7
			c-0.6,0-1,0.2-1.1,0.8h-1.1c0.1-1.3,1.2-1.6,2.2-1.6c1,0,2,0.4,2,1.4V74.4z M334.5,73c-0.3,0.2-0.9,0.2-1.3,0.3
			c-0.5,0.1-0.9,0.2-0.9,0.8c0,0.5,0.6,0.6,1,0.6c0.5,0,1.2-0.2,1.2-0.9V73z"/>
		<path class="st4" d="M336.9,68.7h1.1v6.8h-1.1V68.7z"/>
		<path class="st4" d="M346.5,70.9c-0.2-0.8-0.7-1.3-1.7-1.3c-1.5,0-2.1,1.3-2.1,2.6c0,1.3,0.6,2.6,2.1,2.6c1.1,0,1.6-0.8,1.7-1.8
			h1.2c-0.1,1.6-1.2,2.7-2.9,2.7c-2,0-3.3-1.6-3.3-3.6c0-1.9,1.2-3.6,3.3-3.6c1.5,0,2.7,0.9,2.9,2.3H346.5z"/>
		<path class="st4" d="M352.8,74.4c0,0.3,0.1,0.4,0.3,0.4c0.1,0,0.2,0,0.3,0v0.8c-0.2,0.1-0.5,0.1-0.7,0.1c-0.4,0-0.8-0.2-0.8-0.6
			c-0.4,0.4-1.1,0.6-1.7,0.6c-0.9,0-1.7-0.5-1.7-1.4c0-1.2,1-1.4,1.9-1.5c0.8-0.1,1.5-0.1,1.5-0.7c0-0.6-0.6-0.7-1-0.7
			c-0.6,0-1,0.2-1.1,0.8h-1.1c0.1-1.3,1.2-1.6,2.2-1.6c1,0,2,0.4,2,1.4V74.4z M351.7,73c-0.3,0.2-0.9,0.2-1.3,0.3
			c-0.5,0.1-0.9,0.2-0.9,0.8c0,0.5,0.6,0.6,1,0.6c0.5,0,1.2-0.2,1.2-0.9V73z"/>
		<path class="st4" d="M354.1,70.6h1v0.7h0c0.3-0.5,0.7-0.8,1.5-0.8c0.6,0,1.2,0.3,1.4,0.8c0.4-0.5,0.8-0.8,1.5-0.8
			c1,0,1.6,0.5,1.6,1.7v3.4h-1.1v-2.9c0-0.8,0-1.3-0.9-1.3c-0.7,0-1,0.5-1,1.3v2.9h-1.1v-3.2c0-0.7-0.2-1-0.9-1
			c-0.6,0-1.1,0.5-1.1,1.3v2.9h-1.1V70.6z"/>
		<path class="st4" d="M362.5,70.6h1v0.7h0c0.3-0.6,0.9-0.8,1.5-0.8c1.5,0,2.3,1.2,2.3,2.6c0,1.3-0.7,2.6-2.1,2.6
			c-0.6,0-1.3-0.2-1.6-0.8h0v2.5h-1.1V70.6z M364.9,71.3c-0.9,0-1.4,0.7-1.4,1.7c0,1,0.5,1.7,1.4,1.7c1,0,1.4-0.9,1.4-1.7
			C366.3,72.2,365.8,71.3,364.9,71.3z"/>
		<path class="st4" d="M372.7,75.5h-1.1v-0.7h0c-0.3,0.5-0.9,0.8-1.4,0.8c-1.3,0-1.8-0.6-1.8-1.9v-3.1h1.1v3c0,0.9,0.4,1.2,0.9,1.2
			c0.9,0,1.2-0.6,1.2-1.3v-2.9h1.1V75.5z"/>
		<path class="st4" d="M374.7,73.9c0.1,0.6,0.5,0.9,1.1,0.9c0.4,0,1.1-0.1,1.1-0.6c0-0.6-0.8-0.6-1.6-0.8c-0.8-0.2-1.6-0.5-1.6-1.5
			c0-1.1,1.2-1.4,2.1-1.4c1,0,1.9,0.4,2.1,1.5h-1.1c-0.1-0.5-0.5-0.7-1-0.7c-0.3,0-0.9,0.1-0.9,0.5c0,0.5,0.8,0.6,1.6,0.8
			c0.8,0.2,1.6,0.5,1.6,1.4c0,1.2-1.2,1.6-2.2,1.6c-1.2,0-2.2-0.6-2.2-1.7H374.7z"/>
	</g>
	<polygon class="st5" points="9.8,0 0,9.8 0,43.7 9.8,53.5 20.6,53.5 20.6,61.8 30.5,71.6 59.2,71.6 69.1,61.8 69.1,35.5 74.2,35.5 
		74.2,18 53.6,18 53.6,9.8 43.8,0 	"/>
	<polygon points="43.4,1 52.6,10.2 52.6,19.1 73.1,19.1 73.1,34.5 68.1,34.5 68.1,61.3 58.8,70.6 30.9,70.6 21.6,61.3 21.6,52.5 
		10.2,52.5 1,43.3 1,10.2 10.2,1 	"/>
	<polygon class="st4" points="11.3,50 24.2,50 24.2,60.3 32,68 57.7,68 65.5,60.3 65.5,32 70.6,32 70.6,21.6 55.1,21.6 55.1,57.7 
		34.5,57.7 34.5,50 42.3,50 50,42.2 50,32 39.7,32 39.7,39.6 34.5,39.6 34.5,21.6 19,21.6 19,32 24.2,32 24.2,39.6 13.9,39.6 
		13.9,13.8 39.7,13.8 39.7,21.6 50,21.6 50,11.3 42.3,3.6 11.3,3.6 3.6,11.3 3.6,42.2 	"/>
	<polygon class="st5" points="33.2,48.7 41.8,48.7 48.7,41.7 48.7,33.2 40.9,33.2 40.9,40.9 33.2,40.9 33.2,22.9 20.3,22.9 
		20.3,30.7 25.5,30.7 25.5,40.9 12.6,40.9 12.6,12.5 40.9,12.5 40.9,20.3 48.7,20.3 48.7,11.8 41.8,4.8 11.8,4.8 4.8,11.8 4.8,41.7 
		11.8,48.7 25.5,48.7 25.5,59.8 32.5,66.8 57.2,66.8 64.3,59.8 64.3,30.7 69.3,30.7 69.3,22.9 56.3,22.9 56.3,59 33.2,59 	"/>
</g>
</svg>
